<svg id="vetorNote" xmlns="http://www.w3.org/2000/svg" viewBox="0 0 783.11 500.37">
							<title>Notebook NFe+</title>
							<g style="isolation:isolate">
								<g id="NfeVector">
									<g id="NoteImg">
										<path id="BordaTela" d="M671.82,361.56V11.21a9.36,9.36,0,0,0-9.36-9.35H120.65a9.36,9.36,0,0,0-9.36,9.35V361.56a9.32,9.32,0,0,0,3.86,7.56,99.3,99.3,0,0,1,13.39-.88h526a99.26,99.26,0,0,1,13.4.89A9.35,9.35,0,0,0,671.82,361.56Zm-22.35-20H134.64V31.24H649.47Z" style="fill:#4e4e4e"></path>
										<rect x="134.64" y="31.24" width="514.83" height="310.3" style="fill:#f2f2f2"></rect>
										<path id="TecladoNote" d="M782.05,466.25,677.33,371.79c-1-.85-3.4-1.64-6.71-2.25-.84-.15-1.73-.29-2.66-.42a99.26,99.26,0,0,0-13.4-.89h-526a99.3,99.3,0,0,0-13.39.88c-.93.13-1.83.27-2.66.42-3.31.61-5.76,1.4-6.71,2.25L1.06,466.25a2.49,2.49,0,0,0-1,2.05,1.74,1.74,0,0,0,.14.48s0,0,0,.05a2.16,2.16,0,0,0,.29.45l0,.06a4.89,4.89,0,0,0,1,.85l.11.06q.33.19.72.39l.08,0c.25.12.53.23.83.35l.1,0c.31.12.64.23,1,.33l.18.06c.36.11.74.21,1.13.31h0c.4.09.82.19,1.25.27l.22.05,1.33.24.23,0,1.38.2.13,0,1.55.17.33,0,1.64.13.22,0,1.61.09h.32q.88,0,1.8.06h.4l1.95,0h743l2,0h.38c.63,0,1.24,0,1.84-.06l.33,0c.59,0,1.17-.06,1.74-.1h.08c.58,0,1.15-.09,1.7-.15l.3,0c.54-.05,1.06-.11,1.57-.18l.2,0,1.48-.22h.05c.49-.08,1-.17,1.41-.26l.17,0c.45-.1.87-.19,1.28-.3h0a19.63,19.63,0,0,0,2.26-.71l.06,0a7.77,7.77,0,0,0,2.31-1.29h0a2.1,2.1,0,0,0,.82-1.51A2.59,2.59,0,0,0,782.05,466.25Zm-297.44,1.13H298.5c-4.82,0-8.43-1-8.08-2.24l8.26-28.66c.3-1,4.08-1.87,8.45-1.87H476c4.37,0,8.15.83,8.45,1.87l8.25,28.66C493,466.37,489.43,467.38,484.61,467.38Zm217.68-38.19H80.82c-4.3,0-7-.81-6-1.79l52.53-52c.69-.68,4.12-1.23,7.67-1.23h513c3.55,0,7,.55,7.67,1.23l52.53,52C709.26,428.38,706.59,429.19,702.29,429.19Z" style="fill:#f1f1f1"></path>
										<path id="BordaInf" d="M783.09,479.91V468.15h0a2.1,2.1,0,0,1-.82,1.51h0A7.77,7.77,0,0,1,780,471l-.06,0a19.63,19.63,0,0,1-2.26.71h0c-.41.11-.83.2-1.28.3l-.17,0c-.45.09-.92.18-1.41.26h-.05l-1.48.22-.2,0c-.51.07-1,.13-1.57.18l-.3,0c-.55.06-1.12.11-1.7.15h-.08c-.57,0-1.15.08-1.74.1l-.33,0c-.6,0-1.21.05-1.84.06h-.38l-2,0H20l-1.95,0h-.4q-.92,0-1.8-.06h-.32L14,472.92l-.22,0-1.64-.13-.33,0-1.55-.17-.13,0-1.38-.2-.23,0-1.33-.24L6.93,472c-.43-.08-.85-.18-1.25-.27h0c-.39-.1-.77-.2-1.13-.31l-.18-.06c-.34-.1-.67-.21-1-.33l-.1,0c-.3-.12-.58-.23-.83-.35l-.08,0q-.39-.19-.72-.39l-.11-.06a4.89,4.89,0,0,1-1-.85l0-.06a2.16,2.16,0,0,1-.29-.45s0,0,0-.05A1.74,1.74,0,0,1,0,468.3H0v11.63c.09,1.84,3.48,3.37,9.17,4.21h0c1.06.16,2.2.29,3.41.39l.5.05,1,.07,1.48.09.61,0,1.32.05h.6l1.94,0h743l1.94,0h.6l1.33-.05.6,0,1.49-.09,1-.07.49-.05c1.21-.1,2.35-.23,3.41-.39C779.63,483.3,783,481.76,783.09,479.91Z" style="fill:#dcdcdc"></path>
										<path id="SombraNote" d="M770,484.58l-1,.07-1.49.09-.6,0-1.33.05H765l-1.94,0H20l-1.94,0h-.6l-1.32-.05-.61,0-1.48-.09-1-.07-.5-.05c-1.21-.1-2.35-.23-3.41-.39l-8.13,8.38c-4.16,4.3,4.3,7.85,19,7.85h743c14.68,0,23.14-3.55,19-7.85l-8.13-8.38h0c-1.06.16-2.2.29-3.41.39Z" style="fill:#f1f1f1;mix-blend-mode:multiply"></path>
										<path id="FundoTeclado" d="M80.82,429.19H702.29c4.3,0,7-.81,6-1.79l-52.53-52c-.69-.68-4.12-1.23-7.67-1.23H135c-3.55,0-7,.55-7.67,1.23l-52.53,52C73.85,428.38,76.52,429.19,80.82,429.19Zm94.32-12.9-5.91,8.26c-.35.48-2.35.88-4.47.88H138.21c-2.12,0-3.52-.4-3.12-.88l6.82-8.26c.38-.45,2.35-.82,4.4-.82H172C174.07,415.47,175.47,415.84,175.14,416.29Zm43.94,0-4.71,8.26c-.28.48-2.22.88-4.34.88H183.57c-2.12,0-3.57-.4-3.25-.88l5.62-8.26c.31-.45,2.23-.82,4.28-.82h25.61C217.89,415.47,219.34,415.84,219.08,416.29Zm-1.62-3.61H188.34c-2,0-3.44-.36-3.13-.81l5.27-7.6c.29-.42,2.12-.76,4.1-.76H222.8c2,0,3.38.34,3.14.76l-4.34,7.6C221.35,412.32,219.49,412.68,217.46,412.68Zm46,11.87c-.2.48-2.08.88-4.2.88H228.84c-2.12,0-3.63-.4-3.38-.88l4.42-8.26c.25-.45,2.11-.82,4.16-.82h29.4c2.05,0,3.56.37,3.38.82Zm5.23-12.68c-.18.45-2,.81-4,.81H235.5c-2,0-3.49-.36-3.25-.81l4.06-7.6c.23-.42,2-.76,4-.76h28.23c2,0,3.43.34,3.26.76ZM593,390.07H566.1c-1.88,0-3.6-.3-3.83-.68l-4-6.52c-.22-.36,1.08-.65,2.9-.65h26.16c1.82,0,3.52.29,3.79.65l4.83,6.52C596.2,389.77,594.9,390.07,593,390.07Zm12.05,2.39c1.89,0,3.68.31,4,.7l5.47,7c.32.41-1,.74-3,.74h-28c-2,0-3.76-.33-4-.74l-4.62-7c-.25-.39,1.08-.7,3-.7Zm-44,0c1.9,0,3.64.31,3.88.7l4.36,7c.26.41-1.12.74-3.08.74h-28c-2,0-3.71-.33-3.91-.74l-3.51-7c-.2-.39,1.19-.7,3.08-.7Zm-11.67-2.39H522.5c-1.88,0-3.54-.3-3.72-.68l-3-6.52c-.17-.36,1.18-.65,3-.65h26.15c1.83,0,3.48.29,3.69.65l3.81,6.52C552.65,389.77,551.3,390.07,549.42,390.07Zm-32.3,2.39c1.9,0,3.58.31,3.76.7l3.26,7c.19.41-1.24.74-3.2.74H493c-2,0-3.66-.33-3.8-.74l-2.39-7c-.14-.39,1.29-.7,3.19-.7Zm-13.29,19.41c.16.45-1.35.81-3.39.81H471.32c-2,0-3.78-.36-3.89-.81l-1.94-7.6c-.1-.42,1.41-.76,3.38-.76H497.1c2,0,3.7.34,3.86.76Zm2-21.8H478.91c-1.88,0-3.5-.3-3.62-.68l-2-6.52c-.11-.36,1.29-.65,3.12-.65h26.15c1.83,0,3.43.29,3.59.65l2.77,6.52C509.1,389.77,507.71,390.07,505.83,390.07Zm-29,3.09,2.15,7c.12.41-1.36.74-3.31.74h-28c-2,0-3.6-.33-3.68-.74l-1.29-7c-.07-.39,1.41-.7,3.31-.7h27.15C475.05,392.46,476.68,392.77,476.8,393.16Zm-20,18.71c.1.45-1.48.81-3.51.81H424.16c-2,0-3.72-.36-3.77-.81l-.73-7.6c0-.42,1.52-.76,3.5-.76h28.22c2,0,3.65.34,3.74.76Zm5.44-21.8H435.32c-1.89,0-3.46-.3-3.51-.68l-.95-6.52c-.06-.36,1.38-.65,3.21-.65h26.15c1.83,0,3.39.29,3.49.65l1.75,6.52C465.56,389.77,464.12,390.07,462.23,390.07Zm-29.51,3.09,1,7c.06.41-1.48.74-3.43.74h-28c-2,0-3.55-.33-3.56-.74l-.18-7c0-.39,1.52-.7,3.42-.7h27.15C431.08,392.46,432.66,392.77,432.72,393.16Zm-23,18.71c0,.45-1.6.81-3.63.81H377c-2,0-3.66-.36-3.63-.81l.46-7.6c0-.42,1.65-.76,3.62-.76h28.23c2,0,3.59.34,3.62.76Zm8.89-21.8H391.72c-1.88,0-3.4-.3-3.4-.68l.08-6.52c0-.36,1.49-.65,3.32-.65h26.15c1.83,0,3.34.29,3.38.65l.72,6.52C422,389.77,420.52,390.07,418.64,390.07Zm-30,3.09-.07,7c0,.41-1.6.74-3.55.74H357c-2,0-3.5-.33-3.44-.74l.93-7c.05-.39,1.63-.7,3.53-.7h27.15C387.11,392.46,388.64,392.77,388.64,393.16ZM360,403.51c2,0,3.54.34,3.5.76l-.74,7.6c0,.45-1.72.81-3.76.81H329.83c-2,0-3.61-.36-3.51-.81l1.67-7.6c.09-.42,1.76-.76,3.73-.76Zm-16.58-3.32c-.07.41-1.71.74-3.66.74h-28c-2,0-3.44-.33-3.32-.74l2-7c.11-.39,1.74-.7,3.64-.7h27.15c1.9,0,3.38.31,3.32.7Zm-29.13,3.32c2,0,3.48.34,3.38.76l-1.94,7.6c-.12.45-1.86.81-3.89.81H282.67c-2,0-3.55-.36-3.39-.81l2.87-7.6c.16-.42,1.89-.76,3.86-.76Zm-16.06-3.32c-.13.41-1.83.74-3.78.74h-28c-1.95,0-3.39-.33-3.21-.74l3.16-7c.17-.39,1.85-.7,3.75-.7h27.15c1.9,0,3.33.31,3.2.7Zm206.91,25.24H278c-2.13,0-3.7-.4-3.52-.88l3.12-8.26c.17-.45,2-.82,4-.82H501.46c2.06,0,3.86.37,4,.82l3.11,8.26C508.79,425,507.21,425.43,505.09,425.43Zm9.38-13.56-3.14-7.6c-.17-.42,1.28-.76,3.26-.76h28.23c2,0,3.75.34,4,.76l4.07,7.6c.24.45-1.22.81-3.25.81H518.49C516.45,412.68,514.65,412.32,514.47,411.87Zm39.8,13.56H523.9c-2.12,0-4-.4-4.2-.88l-3.41-8.26c-.19-.45,1.33-.82,3.38-.82h29.4c2,0,3.91.37,4.16.82l4.41,8.26C557.9,425,556.39,425.43,554.27,425.43Zm7.23-13.56-4.34-7.6c-.23-.42,1.17-.76,3.14-.76h28.23c2,0,3.81.34,4.1.76l5.27,7.6c.31.45-1.09.81-3.13.81H565.65C563.61,412.68,561.76,412.32,561.5,411.87ZM600,425.43h-27c-2.12,0-4.07-.4-4.34-.88l-1.9-3.33c-.27-.47,1.2-.85,3.29-.85h26.53c2.08,0,4,.38,4.36.85l2.27,3.33C603.62,425,602.17,425.43,600,425.43Zm45.37,0H618.85c-2.12,0-4.12-.4-4.47-.88l-5.92-8.26c-.33-.45,1.07-.82,3.13-.82h25.7c2.05,0,4,.37,4.4.82l6.83,8.26C648.92,425,647.53,425.43,645.41,425.43Zm45-4.21,3.25,3.33c.46.48-.87.88-3,.88H664.22c-2.12,0-4.18-.4-4.6-.88l-2.88-3.33c-.4-.47,1-.85,3-.85h26C687.9,420.37,690,420.75,690.42,421.22Zm-9.23-9.49c.51.52-.73.95-2.76.95H612.81c-2,0-4-.43-4.38-.95l-5.33-7.32c-.36-.5.95-.9,2.92-.9h63.6c2,0,4,.4,4.45.9Zm-11.36-11.68c.47.49-.73.88-2.68.88H628.89c-1.95,0-3.86-.39-4.25-.88l-5.51-6.76c-.38-.46.86-.83,2.76-.83H659c1.89,0,3.79.37,4.24.83Zm-10.5-10.79c.44.45-.73.81-2.61.81h-47c-1.88,0-3.69-.36-4-.81L600.78,383c-.33-.42.88-.77,2.71-.77h45.68c1.83,0,3.65.35,4.07.77Zm-40.28-12.95H643.5c1.78,0,3.5.28,3.84.62l2.37,2.44c.34.35-.85.64-2.66.64H622.26c-1.81,0-3.52-.29-3.82-.64l-2.09-2.44C616.06,376.59,617.27,376.31,619.05,376.31Zm-39.95,0h24.44c1.79,0,3.47.28,3.75.62l2,2.44c.29.35-.95.64-2.76.64H581.75c-1.82,0-3.49-.29-3.73-.64l-1.72-2.44C576.06,376.59,577.31,376.31,579.1,376.31Zm-40,0h24.44c1.79,0,3.42.28,3.65.62l1.63,2.44c.24.35-1,.64-2.86.64H541.23c-1.81,0-3.44-.29-3.63-.64l-1.35-2.44C536.06,376.59,537.36,376.31,539.15,376.31Zm-40,0h24.44c1.79,0,3.39.28,3.56.62l1.26,2.44c.18.35-1.14.64-3,.64H500.71c-1.81,0-3.39-.29-3.53-.64l-1-2.44C496.07,376.59,497.41,376.31,499.19,376.31Zm-39.95,0h24.44c1.79,0,3.34.28,3.46.62l.89,2.44c.13.35-1.24.64-3,.64H460.2c-1.82,0-3.36-.29-3.44-.64l-.6-2.44C456.07,376.59,457.45,376.31,459.24,376.31Zm-39.95,0h24.44c1.79,0,3.29.28,3.37.62l.51,2.44c.08.35-1.33.64-3.15.64H419.68c-1.81,0-3.31-.29-3.34-.64l-.23-2.44C416.08,376.59,417.5,376.31,419.29,376.31Zm-43.23.62c0-.34,1.49-.62,3.27-.62h24.44c1.79,0,3.26.28,3.28.62l.14,2.44c0,.35-1.43.64-3.24.64H379.16c-1.81,0-3.26-.29-3.24-.64Zm2.73,5.94-.31,6.52c0,.38-1.55.68-3.44.68H348.13c-1.88,0-3.36-.3-3.29-.68l1.1-6.52c.06-.36,1.59-.65,3.42-.65h26.15C377.34,382.22,378.81,382.51,378.79,382.87ZM336,376.93c.07-.34,1.58-.62,3.37-.62h24.44c1.79,0,3.21.28,3.18.62l-.23,2.44c0,.35-1.53.64-3.34.64H338.64c-1.81,0-3.22-.29-3.14-.64Zm.33,5.94L335,389.39c-.08.38-1.67.68-3.55.68H304.53c-1.88,0-3.3-.3-3.18-.68l2.13-6.52c.12-.36,1.7-.65,3.53-.65h26.15C335,382.22,336.41,382.51,336.34,382.87ZM296,376.93c.13-.34,1.68-.62,3.47-.62h24.44c1.79,0,3.17.28,3.08.62l-.6,2.44c-.08.35-1.62.64-3.44.64H298.13c-1.82,0-3.18-.29-3.05-.64Zm-2.08,5.94-2.37,6.52c-.14.38-1.77.68-3.65.68H260.94c-1.88,0-3.26-.3-3.08-.68l3.17-6.52c.17-.36,1.8-.65,3.62-.65h26.16C292.63,382.22,294,382.51,293.88,382.87Zm-38-5.94c.17-.34,1.77-.62,3.55-.62h24.44c1.79,0,3.13.28,3,.62l-1,2.44c-.14.35-1.72.64-3.53.64H257.61c-1.81,0-3.13-.29-3-.64Zm.47,16.23-3.4,7c-.2.41-1.94.74-3.9.74h-28c-2,0-3.34-.33-3.09-.74l4.26-7c.24-.39,2-.7,3.87-.7H253.3C255.19,392.46,256.58,392.77,256.39,393.16Zm-5-10.29L248,389.39c-.2.38-1.89.68-3.77.68H217.34c-1.88,0-3.21-.3-3-.68l4.19-6.52c.23-.36,1.9-.65,3.73-.65h26.15C250.28,382.22,251.61,382.51,251.42,382.87Zm-37.18-3.5,1.63-2.44c.23-.34,1.86-.62,3.65-.62H244c1.79,0,3.08.28,2.89.62l-1.34,2.44c-.19.35-1.82.64-3.63.64H217.09C215.28,380,214,379.72,214.24,379.37Zm-1.93,13.79-4.51,7c-.26.41-2.06.74-4,.74h-28c-2,0-3.28-.33-3-.74l5.37-7c.3-.39,2.08-.7,4-.7h27.15C211.22,392.46,212.56,392.77,212.31,393.16Zm-38.49-13.79,2-2.44c.28-.34,2-.62,3.75-.62H204c1.78,0,3,.28,2.8.62l-1.72,2.44c-.25.35-1.92.64-3.73.64H176.58C174.76,380,173.53,379.72,173.82,379.37Zm-2.93,10,5.22-6.52c.29-.36,2-.65,3.83-.65H206.1c1.82,0,3.11.29,2.86.65l-4.42,6.52c-.26.38-2,.68-3.87.68H173.75C171.87,390.07,170.59,389.77,170.89,389.39Zm-37.49-10,2.37-2.44c.34-.34,2.06-.62,3.84-.62h24.44c1.79,0,3,.28,2.71.62l-2.09,2.44c-.3.35-2,.64-3.83.64H136.06C134.25,380,133.06,379.72,133.4,379.37Zm-9.62,9.89,6.09-6.27c.42-.42,2.24-.77,4.06-.77h29.81c1.83,0,3,.35,2.66.77l-5.24,6.27c-.38.45-2.21.81-4.09.81H126.39C124.51,390.07,123.34,389.71,123.78,389.26Zm-10.5,10.79,6.58-6.76c.44-.46,2.34-.83,4.24-.83h41.25c1.9,0,3.14.37,2.77.83l-5.4,6.76c-.39.49-2.29.88-4.25.88H116C114,400.93,112.81,400.54,113.28,400.05Zm-11.36,11.68,7.12-7.32c.48-.5,2.48-.9,4.45-.9h63.6c2,0,3.28.4,2.92.9l-5.34,7.32c-.38.52-2.34.95-4.37.95H104.68C102.65,412.68,101.41,412.25,101.92,411.73ZM89.44,424.55l8-8.26c.44-.45,2.46-.82,4.52-.82h26.1c2.05,0,3.4.37,3,.82L124,424.55c-.41.48-2.47.88-4.59.88h-27C90.31,425.43,89,425,89.44,424.55Z" style="fill:#dcdcdc"></path>
										<path id="Mouse" d="M484.43,436.48c-.3-1-4.08-1.87-8.45-1.87H307.13c-4.37,0-8.15.83-8.45,1.87l-8.26,28.66c-.35,1.23,3.26,2.24,8.08,2.24H484.61c4.82,0,8.43-1,8.07-2.24Z" style="fill:#dcdcdc"></path>
										<path id="Tecla57" d="M104.68,412.68H170.3c2,0,4-.43,4.37-.95l5.34-7.32c.36-.5-.95-.9-2.92-.9h-63.6c-2,0-4,.4-4.45.9l-7.12,7.32C101.41,412.25,102.65,412.68,104.68,412.68Z" style="fill:#4e4e4e"></path>
										<path id="Tecla56" d="M222.8,403.51H194.58c-2,0-3.81.34-4.1.76l-5.27,7.6c-.31.45,1.09.81,3.13.81h29.12c2,0,3.89-.36,4.14-.81l4.34-7.6C226.18,403.85,224.78,403.51,222.8,403.51Z" style="fill:#4e4e4e"></path>
										<path id="Tecla55" d="M268.52,403.51H240.29c-2,0-3.75.34-4,.76l-4.06,7.6c-.24.45,1.22.81,3.25.81h29.12c2,0,3.84-.36,4-.81l3.14-7.6C272,403.85,270.49,403.51,268.52,403.51Z" style="fill:#4e4e4e"></path>
										<path id="Tecla54" d="M282.15,404.27l-2.87,7.6c-.16.45,1.35.81,3.39.81h29.12c2,0,3.77-.36,3.89-.81l1.94-7.6c.1-.42-1.41-.76-3.38-.76H286C284,403.51,282.31,403.85,282.15,404.27Z" style="fill:#4e4e4e"></path>
										<path id="Tecla53" d="M405.67,403.51H377.44c-2,0-3.59.34-3.62.76l-.46,7.6c0,.45,1.6.81,3.63.81h29.13c2,0,3.66-.36,3.63-.81l-.46-7.6C409.26,403.85,407.64,403.51,405.67,403.51Z" style="fill:#4e4e4e"></path>
										<path id="Tecla52" d="M328,404.27l-1.67,7.6c-.1.45,1.47.81,3.51.81H359c2,0,3.72-.36,3.76-.81l.74-7.6c0-.42-1.52-.76-3.5-.76H331.72C329.75,403.51,328.08,403.85,328,404.27Z" style="fill:#4e4e4e"></path>
										<path id="Tecla51" d="M451.38,403.51H423.16c-2,0-3.54.34-3.5.76l.73,7.6c.05.45,1.73.81,3.77.81h29.12c2,0,3.61-.36,3.51-.81l-1.67-7.6C455,403.85,453.36,403.51,451.38,403.51Z" style="fill:#4e4e4e"></path>
										<path id="Tecla50" d="M497.1,403.51H468.87c-2,0-3.48.34-3.38.76l1.94,7.6c.11.45,1.86.81,3.89.81h29.12c2,0,3.55-.36,3.39-.81l-2.87-7.6C500.8,403.85,499.07,403.51,497.1,403.51Z" style="fill:#4e4e4e"></path>
										<path id="Tecla49" d="M547.61,412.68c2,0,3.49-.36,3.25-.81l-4.07-7.6c-.22-.42-2-.76-4-.76H514.59c-2,0-3.43.34-3.26.76l3.14,7.6c.18.45,2,.81,4,.81Z" style="fill:#4e4e4e"></path>
										<path id="Tecla48" d="M597.9,411.87l-5.27-7.6c-.29-.42-2.13-.76-4.1-.76H560.3c-2,0-3.37.34-3.14.76l4.34,7.6c.26.45,2.11.81,4.15.81h29.12C596.81,412.68,598.21,412.32,597.9,411.87Z" style="fill:#4e4e4e"></path>
										<path id="Tecla47" d="M172,415.47h-25.7c-2.05,0-4,.37-4.4.82l-6.82,8.26c-.4.48,1,.88,3.12.88h26.55c2.12,0,4.12-.4,4.47-.88l5.91-8.26C175.47,415.84,174.07,415.47,172,415.47Z" style="fill:#4e4e4e"></path>
										<path id="Tecla46" d="M92.44,425.43h27c2.12,0,4.18-.4,4.59-.88l7.12-8.26c.39-.45-1-.82-3-.82H102c-2.06,0-4.08.37-4.52.82l-8,8.26C89,425,90.31,425.43,92.44,425.43Z" style="fill:#4e4e4e"></path>
										<path id="Tecla45" d="M215.83,415.47H190.22c-2.05,0-4,.37-4.28.82l-5.62,8.26c-.32.48,1.13.88,3.25.88H210c2.12,0,4.06-.4,4.34-.88l4.71-8.26C219.34,415.84,217.89,415.47,215.83,415.47Z" style="fill:#4e4e4e"></path>
										<path id="Tecla44" d="M641.69,416.29c-.38-.45-2.35-.82-4.4-.82h-25.7c-2.06,0-3.46.37-3.13.82l5.92,8.26c.35.48,2.35.88,4.47.88h26.56c2.12,0,3.51-.4,3.11-.88Z" style="fill:#4e4e4e"></path>
										<path id="Tecla43" d="M601,421.22c-.32-.47-2.28-.85-4.36-.85H570.13c-2.09,0-3.56.38-3.29.85l1.9,3.33c.27.48,2.22.88,4.34.88h27c2.13,0,3.58-.4,3.25-.88Z" style="fill:#4e4e4e"></path>
										<path id="Tecla42" d="M656.74,421.22l2.88,3.33c.42.48,2.48.88,4.6.88h26.45c2.13,0,3.46-.4,3-.88l-3.25-3.33c-.46-.47-2.52-.85-4.61-.85h-26C657.7,420.37,656.34,420.75,656.74,421.22Z" style="fill:#4e4e4e"></path>
										<path id="Tecla41" d="M263.44,415.47H234c-2,0-3.91.37-4.16.82l-4.42,8.26c-.25.48,1.26.88,3.38.88h30.37c2.12,0,4-.4,4.2-.88l3.41-8.26C267,415.84,265.49,415.47,263.44,415.47Z" style="fill:#4e4e4e"></path>
										<path id="Tecla40" d="M553.23,416.29c-.25-.45-2.11-.82-4.16-.82h-29.4c-2,0-3.57.37-3.38.82l3.41,8.26c.2.48,2.08.88,4.2.88h30.37c2.12,0,3.63-.4,3.37-.88Z" style="fill:#4e4e4e"></path>
										<path id="Tecla39" d="M637.82,403.51H606c-2,0-3.28.4-2.92.9l5.33,7.32c.39.52,2.35.95,4.38.95h65.62c2,0,3.27-.43,2.76-.95l-7.12-7.32c-.49-.5-2.48-.9-4.45-.9Z" style="fill:#4e4e4e"></path>
										<path id="Tecla38" d="M116,400.93h42.51c2,0,3.86-.39,4.25-.88l5.4-6.76c.37-.46-.87-.83-2.77-.83H124.1c-1.9,0-3.8.37-4.24.83l-6.58,6.76C112.81,400.54,114,400.93,116,400.93Z" style="fill:#4e4e4e"></path>
										<path id="Tecla37" d="M222.28,393.16l-4.26,7c-.25.41,1.14.74,3.09.74h28c2,0,3.7-.33,3.9-.74l3.4-7c.19-.39-1.2-.7-3.09-.7H226.15C224.25,392.46,222.52,392.77,222.28,393.16Z" style="fill:#4e4e4e"></path>
										<path id="Tecla36" d="M178.2,393.16l-5.37,7c-.31.41,1,.74,3,.74h28c2,0,3.76-.33,4-.74l4.51-7c.25-.39-1.09-.7-3-.7H182.18C180.28,392.46,178.5,392.77,178.2,393.16Z" style="fill:#4e4e4e"></path>
										<path id="Tecla35" d="M297.27,392.46H270.12c-1.9,0-3.58.31-3.75.7l-3.16,7c-.18.41,1.26.74,3.21.74h28c2,0,3.65-.33,3.78-.74l2.29-7C300.6,392.77,299.17,392.46,297.27,392.46Z" style="fill:#4e4e4e"></path>
										<path id="Tecla34" d="M341.24,392.46H314.09c-1.9,0-3.53.31-3.64.7l-2,7c-.12.41,1.37.74,3.32.74h28c2,0,3.59-.33,3.66-.74l1.19-7C344.62,392.77,343.14,392.46,341.24,392.46Z" style="fill:#4e4e4e"></path>
										<path id="Tecla33" d="M402,392.46c-1.9,0-3.43.31-3.42.7l.18,7c0,.41,1.6.74,3.56.74h28c1.95,0,3.49-.33,3.43-.74l-1-7c-.06-.39-1.64-.7-3.54-.7Z" style="fill:#4e4e4e"></path>
										<path id="Tecla32" d="M358.06,392.46c-1.9,0-3.48.31-3.53.7l-.93,7c-.06.41,1.48.74,3.44.74h28c2,0,3.54-.33,3.55-.74l.07-7c0-.39-1.53-.7-3.43-.7Z" style="fill:#4e4e4e"></path>
										<path id="Tecla31" d="M446,392.46c-1.9,0-3.38.31-3.31.7l1.29,7c.08.41,1.72.74,3.68.74h28c1.95,0,3.43-.33,3.31-.74l-2.15-7c-.12-.39-1.75-.7-3.65-.7Z" style="fill:#4e4e4e"></path>
										<path id="Tecla30" d="M486.78,393.16l2.39,7c.14.41,1.84.74,3.8.74h28c2,0,3.39-.33,3.2-.74l-3.26-7c-.18-.39-1.86-.7-3.76-.7H490C488.07,392.46,486.64,392.77,486.78,393.16Z" style="fill:#4e4e4e"></path>
										<path id="Tecla29" d="M530.86,393.16l3.51,7c.2.41,2,.74,3.91.74h28c2,0,3.34-.33,3.08-.74l-4.36-7c-.24-.39-2-.7-3.88-.7H533.94C532.05,392.46,530.66,392.77,530.86,393.16Z" style="fill:#4e4e4e"></path>
										<path id="Tecla28" d="M574.94,393.16l4.62,7c.27.41,2.07.74,4,.74h28c2,0,3.28-.33,3-.74l-5.47-7c-.3-.39-2.09-.7-4-.7H577.91C576,392.46,574.69,392.77,574.94,393.16Z" style="fill:#4e4e4e"></path>
										<path id="Tecla27" d="M176.58,380h24.78c1.81,0,3.48-.29,3.73-.64l1.72-2.44c.24-.34-1-.62-2.8-.62H179.57c-1.79,0-3.47.28-3.75.62l-2,2.44C173.53,379.72,174.76,380,176.58,380Z" style="fill:#4e4e4e"></path>
										<path id="Tecla26" d="M136.06,380h24.78c1.82,0,3.53-.29,3.83-.64l2.09-2.44c.29-.34-.92-.62-2.71-.62H139.61c-1.78,0-3.5.28-3.84.62l-2.37,2.44C133.06,379.72,134.25,380,136.06,380Z" style="fill:#4e4e4e"></path>
										<path id="Tecla25" d="M217.09,380h24.79c1.81,0,3.44-.29,3.63-.64l1.34-2.44c.19-.34-1.1-.62-2.89-.62H219.52c-1.79,0-3.42.28-3.65.62l-1.63,2.44C214,379.72,215.28,380,217.09,380Z" style="fill:#4e4e4e"></path>
										<path id="Tecla24" d="M257.61,380H282.4c1.81,0,3.39-.29,3.53-.64l1-2.44c.14-.34-1.2-.62-3-.62H259.47c-1.78,0-3.38.28-3.55.62l-1.26,2.44C254.48,379.72,255.8,380,257.61,380Z" style="fill:#4e4e4e"></path>
										<path id="Tecla23" d="M338.64,380h24.79c1.81,0,3.31-.29,3.34-.64l.23-2.44c0-.34-1.39-.62-3.18-.62H339.38c-1.79,0-3.3.28-3.37.62l-.51,2.44C335.42,379.72,336.83,380,338.64,380Z" style="fill:#4e4e4e"></path>
										<path id="Tecla22" d="M298.13,380h24.78c1.82,0,3.36-.29,3.44-.64l.6-2.44c.09-.34-1.29-.62-3.08-.62H299.43c-1.79,0-3.34.28-3.47.62l-.88,2.44C295,379.72,296.31,380,298.13,380Z" style="fill:#4e4e4e"></path>
										<path id="Tecla21" d="M379.16,380H404c1.81,0,3.26-.29,3.24-.64l-.14-2.44c0-.34-1.49-.62-3.28-.62H379.33c-1.78,0-3.25.28-3.27.62l-.14,2.44C375.9,379.72,377.35,380,379.16,380Z" style="fill:#4e4e4e"></path>
										<path id="Tecla20" d="M419.68,380h24.78c1.82,0,3.23-.29,3.15-.64l-.51-2.44c-.08-.34-1.58-.62-3.37-.62H419.29c-1.79,0-3.21.28-3.18.62l.23,2.44C416.37,379.72,417.87,380,419.68,380Z" style="fill:#4e4e4e"></path>
										<path id="Tecla19" d="M460.2,380H485c1.81,0,3.18-.29,3-.64l-.89-2.44c-.12-.34-1.67-.62-3.46-.62H459.24c-1.79,0-3.17.28-3.08.62l.6,2.44C456.84,379.72,458.38,380,460.2,380Z" style="fill:#4e4e4e"></path>
										<path id="Tecla18" d="M500.71,380H525.5c1.81,0,3.13-.29,3-.64l-1.26-2.44c-.17-.34-1.77-.62-3.56-.62H499.19c-1.78,0-3.12.28-3,.62l1,2.44C497.32,379.72,498.9,380,500.71,380Z" style="fill:#4e4e4e"></path>
										<path id="Tecla17" d="M537.6,379.37c.19.35,1.82.64,3.63.64H566c1.82,0,3.1-.29,2.86-.64l-1.63-2.44c-.23-.34-1.86-.62-3.65-.62H539.15c-1.79,0-3.09.28-2.9.62Z" style="fill:#4e4e4e"></path>
										<path id="Tecla16" d="M578,379.37c.24.35,1.91.64,3.73.64h24.78c1.81,0,3.05-.29,2.76-.64l-2-2.44c-.28-.34-2-.62-3.75-.62H579.1c-1.79,0-3,.28-2.8.62Z" style="fill:#4e4e4e"></path>
										<path id="Tecla15" d="M618.44,379.37c.3.35,2,.64,3.82.64h24.79c1.81,0,3-.29,2.66-.64l-2.37-2.44c-.34-.34-2.06-.62-3.84-.62H619.05c-1.78,0-3,.28-2.7.62Z" style="fill:#4e4e4e"></path>
										<path id="Tecla14" d="M640.45,392.46H621.89c-1.9,0-3.14.37-2.76.83l5.51,6.76c.39.49,2.3.88,4.25.88h38.26c2,0,3.15-.39,2.68-.88l-6.58-6.76c-.45-.46-2.35-.83-4.24-.83Z" style="fill:#4e4e4e"></path>
										<path id="Tecla13" d="M126.39,390.07h30.68c1.88,0,3.71-.36,4.09-.81L166.4,383c.36-.42-.83-.77-2.66-.77H133.93c-1.82,0-3.64.35-4.06.77l-6.09,6.27C123.34,389.71,124.51,390.07,126.39,390.07Z" style="fill:#4e4e4e"></path>
										<path id="Tecla12" d="M218.57,382.87l-4.19,6.52c-.25.38,1.08.68,3,.68h26.92c1.88,0,3.57-.3,3.77-.68l3.39-6.52c.19-.36-1.14-.65-3-.65H222.3C220.47,382.22,218.8,382.51,218.57,382.87Z" style="fill:#4e4e4e"></path>
										<path id="Tecla11" d="M173.75,390.07h26.92c1.88,0,3.61-.3,3.87-.68l4.42-6.52c.25-.36-1-.65-2.86-.65H179.94c-1.82,0-3.54.29-3.83.65l-5.22,6.52C170.59,389.77,171.87,390.07,173.75,390.07Z" style="fill:#4e4e4e"></path>
										<path id="Tecla10" d="M261,382.87l-3.17,6.52c-.18.38,1.2.68,3.08.68h26.92c1.88,0,3.51-.3,3.65-.68l2.37-6.52c.13-.36-1.25-.65-3.07-.65H264.65C262.83,382.22,261.2,382.51,261,382.87Z" style="fill:#4e4e4e"></path>
										<path id="Tecla9" d="M303.48,382.87l-2.13,6.52c-.12.38,1.3.68,3.18.68h26.92c1.88,0,3.47-.3,3.55-.68l1.34-6.52c.07-.36-1.35-.65-3.18-.65H307C305.18,382.22,303.6,382.51,303.48,382.87Z" style="fill:#4e4e4e"></path>
										<path id="Tecla8" d="M417.87,382.22H391.72c-1.83,0-3.32.29-3.32.65l-.08,6.52c0,.38,1.52.68,3.4.68h26.92c1.88,0,3.37-.3,3.33-.68l-.72-6.52C421.21,382.51,419.7,382.22,417.87,382.22Z" style="fill:#4e4e4e"></path>
										<path id="Tecla7" d="M345.94,382.87l-1.1,6.52c-.07.38,1.41.68,3.29.68H375c1.89,0,3.43-.3,3.44-.68l.31-6.52c0-.36-1.45-.65-3.28-.65H349.36C347.53,382.22,346,382.51,345.94,382.87Z" style="fill:#4e4e4e"></path>
										<path id="Tecla6" d="M460.22,382.22H434.07c-1.83,0-3.27.29-3.21.65l.95,6.52c.05.38,1.62.68,3.51.68h26.91c1.89,0,3.33-.3,3.23-.68l-1.75-6.52C463.61,382.51,462.05,382.22,460.22,382.22Z" style="fill:#4e4e4e"></path>
										<path id="Tecla5" d="M502.58,382.22H476.43c-1.83,0-3.23.29-3.12.65l2,6.52c.12.38,1.74.68,3.62.68h26.92c1.88,0,3.27-.3,3.11-.68l-2.77-6.52C506,382.51,504.41,382.22,502.58,382.22Z" style="fill:#4e4e4e"></path>
										<path id="Tecla4" d="M548.62,382.87c-.21-.36-1.86-.65-3.69-.65H518.78c-1.83,0-3.18.29-3,.65l3,6.52c.18.38,1.84.68,3.72.68h26.92c1.88,0,3.23-.3,3-.68Z" style="fill:#4e4e4e"></path>
										<path id="Tecla3" d="M591.08,382.87c-.27-.36-2-.65-3.79-.65H561.13c-1.82,0-3.12.29-2.9.65l4,6.52c.23.38,2,.68,3.83.68H593c1.88,0,3.18-.3,2.89-.68Z" style="fill:#4e4e4e"></path>
										<path id="Tecla2" d="M621.37,382.22H603.49c-1.83,0-3,.35-2.71.77l4.87,6.27c.35.45,2.16.81,4,.81h47c1.88,0,3-.36,2.61-.81L653.24,383c-.42-.42-2.24-.77-4.07-.77Z" style="fill:#4e4e4e"></path>
										<path id="Tecla1" d="M501.46,415.47H281.65c-2.06,0-3.86.37-4,.82l-3.12,8.26c-.18.48,1.39.88,3.52.88H505.09c2.12,0,3.7-.4,3.51-.88l-3.11-8.26C505.32,415.84,503.52,415.47,501.46,415.47Z" style="fill:#4e4e4e"></path>
									</g>
									<g id="Circle4">
										<path d="M483.73,160.67a23,23,0,1,0,23,23,23,23,0,0,0-23-23" style="fill:#b2e4cd"></path>
									</g>
									<g id="Circle3">
										<path d="M392.21,260.55a22.12,22.12,0,1,0,22.12,22.11,22.11,22.11,0,0,0-22.12-22.11" style="fill:#b2e4cd"></path>
									</g>
									<g id="Circle2">
										<path d="M295.41,162.43a23.12,23.12,0,1,0,23.11,23.11,23.12,23.12,0,0,0-23.11-23.11" style="fill:#b2e4cd"></path>
									</g>
									<g id="Circle1">
										<path d="M391.41,70.15a22.54,22.54,0,1,0,22.53,22.53,22.54,22.54,0,0,0-22.53-22.53" style="fill:#b2e4cd"></path>
									</g>
										<path d="M332.48,53.78a3.06,3.06,0,0,1-1,2.47,4.31,4.31,0,0,1-2.87.85h-.91v3.56h-2.12v-10h3.19a4.2,4.2,0,0,1,2.77.79A2.85,2.85,0,0,1,332.48,53.78Zm-4.79,1.59h.7a2.29,2.29,0,0,0,1.46-.39,1.6,1.6,0,0,0,.08-2.22,1.89,1.89,0,0,0-1.27-.36h-1Z" style="fill:#4e4e4e"></path>
										<path d="M338.46,52.87a3.48,3.48,0,0,1,.71.06l-.16,2a2.18,2.18,0,0,0-.61-.07,2.22,2.22,0,0,0-1.56.51,1.86,1.86,0,0,0-.56,1.44v3.89H334.2V53h1.58l.31,1.28h.1a2.88,2.88,0,0,1,1-1A2.3,2.3,0,0,1,338.46,52.87Z" style="fill:#4e4e4e"></path>
										<path d="M347.5,56.82a4.12,4.12,0,0,1-1,2.92,3.58,3.58,0,0,1-2.74,1.06,3.89,3.89,0,0,1-1.95-.49,3.19,3.19,0,0,1-1.29-1.38,4.65,4.65,0,0,1-.45-2.11,4.08,4.08,0,0,1,1-2.91,3.6,3.6,0,0,1,2.75-1,3.85,3.85,0,0,1,1.94.48,3.22,3.22,0,0,1,1.29,1.37A4.64,4.64,0,0,1,347.5,56.82Zm-5.28,0a3.21,3.21,0,0,0,.37,1.72,1.32,1.32,0,0,0,1.21.58,1.29,1.29,0,0,0,1.2-.58,3.19,3.19,0,0,0,.37-1.72,3.13,3.13,0,0,0-.37-1.7,1.34,1.34,0,0,0-1.21-.57,1.31,1.31,0,0,0-1.2.57A3.09,3.09,0,0,0,342.22,56.82Z" style="fill:#4e4e4e"></path>
										<path d="M351.64,60.8a2.48,2.48,0,0,1-2.11-1,5.87,5.87,0,0,1,0-5.83,2.54,2.54,0,0,1,2.16-1.05A2.51,2.51,0,0,1,353.9,54H354a8,8,0,0,1-.16-1.52V50h2.09V60.66h-1.6l-.4-1h-.09A2.38,2.38,0,0,1,351.64,60.8Zm.74-1.67a1.41,1.41,0,0,0,1.17-.46,2.75,2.75,0,0,0,.41-1.58v-.23a3.15,3.15,0,0,0-.38-1.76,1.44,1.44,0,0,0-1.24-.53,1.21,1.21,0,0,0-1.08.59,3.13,3.13,0,0,0-.39,1.72,3,3,0,0,0,.39,1.69A1.26,1.26,0,0,0,352.38,59.13Z" style="fill:#4e4e4e"></path>
										<path d="M363.5,60.66l-.28-1h-.11a2.18,2.18,0,0,1-.95.82,3.16,3.16,0,0,1-1.4.3,2.66,2.66,0,0,1-2-.73A2.88,2.88,0,0,1,358,58V53h2.09v4.46a2.2,2.2,0,0,0,.29,1.24,1.07,1.07,0,0,0,.94.41,1.4,1.4,0,0,0,1.26-.58,3.64,3.64,0,0,0,.39-1.94V53h2.09v7.64Z" style="fill:#4e4e4e"></path>
										<path d="M370.5,59.13a4.52,4.52,0,0,0,1.32-.24v1.56a4.74,4.74,0,0,1-1.92.35,2.35,2.35,0,0,1-1.82-.64,2.74,2.74,0,0,1-.57-1.89V54.58h-1V53.7l1.15-.7.6-1.61h1.34V53h2.14v1.56H369.6v3.69a.8.8,0,0,0,.25.65A1,1,0,0,0,370.5,59.13Z" style="fill:#4e4e4e"></path>
										<path d="M380.31,56.82a4.08,4.08,0,0,1-1,2.92,3.57,3.57,0,0,1-2.74,1.06,3.85,3.85,0,0,1-1.94-.49,3.19,3.19,0,0,1-1.29-1.38,4.65,4.65,0,0,1-.45-2.11,4,4,0,0,1,1-2.91,3.58,3.58,0,0,1,2.74-1,3.82,3.82,0,0,1,1.94.48,3.19,3.19,0,0,1,1.3,1.37A4.64,4.64,0,0,1,380.31,56.82Zm-5.29,0a3.2,3.2,0,0,0,.38,1.72,1.31,1.31,0,0,0,1.21.58,1.29,1.29,0,0,0,1.2-.58,3.29,3.29,0,0,0,.36-1.72,3.23,3.23,0,0,0-.36-1.7,1.57,1.57,0,0,0-2.42,0A3.18,3.18,0,0,0,375,56.82Z" style="fill:#4e4e4e"></path>
										<path d="M387.36,58.39a2.11,2.11,0,0,1-.81,1.79,4.06,4.06,0,0,1-2.45.62,7.23,7.23,0,0,1-1.42-.12,4.85,4.85,0,0,1-1.1-.33V58.63a8,8,0,0,0,1.31.46,5.37,5.37,0,0,0,1.28.18c.76,0,1.13-.22,1.13-.66a.57.57,0,0,0-.15-.4,2.2,2.2,0,0,0-.52-.34,10.7,10.7,0,0,0-1-.46,6,6,0,0,1-1.3-.68,2,2,0,0,1-.6-.72,2.48,2.48,0,0,1-.18-1,1.83,1.83,0,0,1,.78-1.58,3.88,3.88,0,0,1,2.24-.56,6.38,6.38,0,0,1,2.69.6L386.65,55c-.38-.17-.74-.3-1.07-.41a3.5,3.5,0,0,0-1-.15c-.62,0-.92.16-.92.5a.6.6,0,0,0,.29.48,8.12,8.12,0,0,0,1.31.61,6.14,6.14,0,0,1,1.31.68,2,2,0,0,1,.61.72A2.12,2.12,0,0,1,387.36,58.39Z" style="fill:#4e4e4e"></path>
										<path d="M396.08,60.8a3.93,3.93,0,0,1-2.88-1,3.87,3.87,0,0,1-1-2.89,4.24,4.24,0,0,1,1-3,3.43,3.43,0,0,1,2.66-1.05,3.34,3.34,0,0,1,2.52.93,3.47,3.47,0,0,1,.9,2.54v1h-4.93a2,2,0,0,0,.53,1.38,1.83,1.83,0,0,0,1.38.5,5.54,5.54,0,0,0,1.31-.14,6.61,6.61,0,0,0,1.28-.46v1.62a4.89,4.89,0,0,1-1.17.4A7.22,7.22,0,0,1,396.08,60.8Zm-.29-6.44a1.33,1.33,0,0,0-1,.42,2,2,0,0,0-.43,1.19h2.93a1.73,1.73,0,0,0-.41-1.19A1.36,1.36,0,0,0,395.79,54.36Z" style="fill:#4e4e4e"></path>
										<path d="M408.94,52.28a2.17,2.17,0,0,0-1.85.9,4.18,4.18,0,0,0-.66,2.51c0,2.23.84,3.34,2.51,3.34a7.84,7.84,0,0,0,2.55-.52v1.77a7.08,7.08,0,0,1-2.74.52,4.2,4.2,0,0,1-3.34-1.33,5.61,5.61,0,0,1-1.16-3.8,6.23,6.23,0,0,1,.57-2.73,4.05,4.05,0,0,1,1.63-1.79,4.8,4.8,0,0,1,2.49-.63,6.87,6.87,0,0,1,2.93.7L411.19,53a10.82,10.82,0,0,0-1.13-.47A3.44,3.44,0,0,0,408.94,52.28Z" style="fill:#4e4e4e"></path>
										<path d="M415.54,60.66h-2.08V50h2.08Z" style="fill:#4e4e4e"></path>
										<path d="M417.64,51c0-.68.38-1,1.13-1s1.14.34,1.14,1a1,1,0,0,1-.29.76,1.17,1.17,0,0,1-.85.27C418,52.07,417.64,51.72,417.64,51Zm2.17,9.62h-2.08V53h2.08Z" style="fill:#4e4e4e"></path>
										<path d="M425.46,60.8a4,4,0,0,1-2.89-1,3.87,3.87,0,0,1-1-2.89,4.24,4.24,0,0,1,1-3,3.41,3.41,0,0,1,2.65-1.05,3.34,3.34,0,0,1,2.52.93,3.44,3.44,0,0,1,.91,2.54v1h-4.93a2,2,0,0,0,.52,1.38,1.83,1.83,0,0,0,1.38.5,5.54,5.54,0,0,0,1.31-.14,6.94,6.94,0,0,0,1.29-.46v1.62a5.21,5.21,0,0,1-1.17.4A7.29,7.29,0,0,1,425.46,60.8Zm-.29-6.44a1.31,1.31,0,0,0-1,.42A1.89,1.89,0,0,0,423.7,56h2.92a1.72,1.72,0,0,0-.4-1.19A1.36,1.36,0,0,0,425.17,54.36Z" style="fill:#4e4e4e"></path>
										<path d="M437.33,60.66h-2.09V56.19A2.2,2.2,0,0,0,435,55a1.09,1.09,0,0,0-.94-.41,1.4,1.4,0,0,0-1.26.58,3.64,3.64,0,0,0-.39,1.94v3.6h-2.09V53h1.59l.28,1h.12a2.1,2.1,0,0,1,1-.83,3.26,3.26,0,0,1,1.39-.29,2.69,2.69,0,0,1,2,.72,2.9,2.9,0,0,1,.69,2.08Z" style="fill:#4e4e4e"></path>
										<path d="M442.69,59.13a4.46,4.46,0,0,0,1.31-.24v1.56a4.66,4.66,0,0,1-1.91.35,2.35,2.35,0,0,1-1.82-.64,2.74,2.74,0,0,1-.57-1.89V54.58h-1V53.7l1.15-.7.6-1.61h1.33V53h2.14v1.56h-2.14v3.69a.83.83,0,0,0,.25.65A1,1,0,0,0,442.69,59.13Z" style="fill:#4e4e4e"></path>
										<path d="M449,60.8a4,4,0,0,1-2.89-1,3.87,3.87,0,0,1-1-2.89,4.25,4.25,0,0,1,1-3,3.41,3.41,0,0,1,2.65-1.05,3.34,3.34,0,0,1,2.52.93,3.44,3.44,0,0,1,.91,2.54v1H447.2a2,2,0,0,0,.52,1.38,1.83,1.83,0,0,0,1.38.5,5.54,5.54,0,0,0,1.31-.14,6.94,6.94,0,0,0,1.29-.46v1.62a5.21,5.21,0,0,1-1.17.4A7.29,7.29,0,0,1,449,60.8Zm-.3-6.44a1.31,1.31,0,0,0-1,.42,1.83,1.83,0,0,0-.43,1.19h2.92a1.72,1.72,0,0,0-.4-1.19A1.37,1.37,0,0,0,448.71,54.36Z" style="fill:#4e4e4e"></path>
										<path d="M459.15,58.39a2.11,2.11,0,0,1-.81,1.79,4.06,4.06,0,0,1-2.45.62,7.23,7.23,0,0,1-1.42-.12,4.85,4.85,0,0,1-1.1-.33V58.63a8,8,0,0,0,1.31.46,5.44,5.44,0,0,0,1.28.18q1.14,0,1.14-.66a.57.57,0,0,0-.15-.4,2.74,2.74,0,0,0-.52-.34c-.25-.13-.58-.29-1-.46a5.67,5.67,0,0,1-1.29-.68,2,2,0,0,1-.61-.72,2.48,2.48,0,0,1-.18-1,1.81,1.81,0,0,1,.79-1.58,3.83,3.83,0,0,1,2.23-.56,6.35,6.35,0,0,1,2.69.6L458.44,55c-.38-.17-.74-.3-1.07-.41a3.5,3.5,0,0,0-1-.15c-.61,0-.92.16-.92.5a.59.59,0,0,0,.3.48A7.47,7.47,0,0,0,457,56a6.14,6.14,0,0,1,1.31.68,2.1,2.1,0,0,1,.62.72A2.26,2.26,0,0,1,459.15,58.39Z" style="fill:#4e4e4e"></path>
										<path d="M196.73,181.66H194l-4.34-7.56h-.06c.08,1.33.12,2.29.12,2.86v4.7h-1.89v-10h2.67l4.35,7.49h0c-.07-1.3-.1-2.22-.1-2.76v-4.73h1.91Z" style="fill:#4e4e4e"></path>
										<path d="M206,177.82a4.08,4.08,0,0,1-1,2.92,3.58,3.58,0,0,1-2.74,1.06,3.85,3.85,0,0,1-1.94-.49,3.19,3.19,0,0,1-1.29-1.38,4.53,4.53,0,0,1-.46-2.11,4.08,4.08,0,0,1,1-2.91,3.6,3.6,0,0,1,2.75-1,3.85,3.85,0,0,1,1.94.48,3.22,3.22,0,0,1,1.29,1.37A4.64,4.64,0,0,1,206,177.82Zm-5.28,0a3.21,3.21,0,0,0,.37,1.72,1.34,1.34,0,0,0,1.22.58,1.32,1.32,0,0,0,1.2-.58,3.29,3.29,0,0,0,.36-1.72,3.13,3.13,0,0,0-.37-1.7,1.56,1.56,0,0,0-2.41,0A3.09,3.09,0,0,0,200.74,177.82Z" style="fill:#4e4e4e"></path>
										<path d="M211,180.13a4.52,4.52,0,0,0,1.31-.24v1.56a4.72,4.72,0,0,1-1.91.35,2.36,2.36,0,0,1-1.83-.64,2.74,2.74,0,0,1-.57-1.89v-3.69h-1v-.88l1.15-.7.6-1.61h1.34V174h2.14v1.56h-2.14v3.69a.8.8,0,0,0,.25.65A1,1,0,0,0,211,180.13Z" style="fill:#4e4e4e"></path>
										<path d="M218.68,181.66l-.41-1h-.05a3.09,3.09,0,0,1-1.08.92,3.57,3.57,0,0,1-1.46.26,2.34,2.34,0,0,1-1.73-.63,2.43,2.43,0,0,1-.63-1.79,2,2,0,0,1,.85-1.8,5,5,0,0,1,2.57-.64l1.32,0v-.33a1,1,0,0,0-1.19-1.17,5.4,5.4,0,0,0-2.15.56l-.69-1.41a6.21,6.21,0,0,1,2.93-.69,3.6,3.6,0,0,1,2.35.67,2.47,2.47,0,0,1,.82,2v5.09Zm-.62-3.54-.8,0a2.63,2.63,0,0,0-1.36.33,1,1,0,0,0-.44.92c0,.59.33.88,1,.88a1.6,1.6,0,0,0,1.16-.42,1.43,1.43,0,0,0,.43-1.1Z" style="fill:#4e4e4e"></path>
										<path d="M230.14,175.58h-1.8v6.08h-2.09v-6.08H225.1v-1l1.15-.56v-.56a2.53,2.53,0,0,1,.64-1.91A3,3,0,0,1,229,171a5.23,5.23,0,0,1,1.92.32l-.53,1.53a4,4,0,0,0-1.16-.2.75.75,0,0,0-.64.26,1.06,1.06,0,0,0-.2.68V174h1.8Zm1.11-3.54c0-.68.38-1,1.13-1s1.14.34,1.14,1a1,1,0,0,1-.28.76,1.22,1.22,0,0,1-.86.27C231.63,173.07,231.25,172.72,231.25,172Zm2.17,9.62h-2.08V174h2.08Z" style="fill:#4e4e4e"></path>
										<path d="M240.94,179.39a2.12,2.12,0,0,1-.82,1.79,4.06,4.06,0,0,1-2.45.62,7.23,7.23,0,0,1-1.42-.12,4.85,4.85,0,0,1-1.1-.33v-1.72a8.35,8.35,0,0,0,1.31.46,5.44,5.44,0,0,0,1.28.18q1.14,0,1.14-.66a.57.57,0,0,0-.15-.4,2.44,2.44,0,0,0-.52-.34c-.25-.13-.58-.29-1-.46a5.9,5.9,0,0,1-1.29-.68,1.84,1.84,0,0,1-.6-.72,2.32,2.32,0,0,1-.19-1,1.81,1.81,0,0,1,.79-1.58,3.86,3.86,0,0,1,2.24-.56,6.34,6.34,0,0,1,2.68.6l-.63,1.51c-.38-.17-.74-.3-1.07-.41a3.5,3.5,0,0,0-1-.15c-.61,0-.92.16-.92.5a.59.59,0,0,0,.3.48,7.88,7.88,0,0,0,1.3.61,5.9,5.9,0,0,1,1.31.68,2,2,0,0,1,.62.72A2.25,2.25,0,0,1,240.94,179.39Z" style="fill:#4e4e4e"></path>
										<path d="M245.67,181.8q-3.57,0-3.57-3.92a4.18,4.18,0,0,1,1-3,3.62,3.62,0,0,1,2.78-1,5.4,5.4,0,0,1,2.38.52l-.62,1.62a7.3,7.3,0,0,0-.91-.33,3.13,3.13,0,0,0-.85-.13c-1.08,0-1.63.77-1.63,2.31s.55,2.25,1.63,2.25a3.6,3.6,0,0,0,2.14-.67v1.79a3.46,3.46,0,0,1-1,.44A5.86,5.86,0,0,1,245.67,181.8Z" style="fill:#4e4e4e"></path>
										<path d="M254.61,181.66l-.4-1h-.05a3.11,3.11,0,0,1-1.09.92,3.48,3.48,0,0,1-1.45.26,2.34,2.34,0,0,1-1.73-.63,2.43,2.43,0,0,1-.64-1.79,2,2,0,0,1,.86-1.8,4.93,4.93,0,0,1,2.56-.64l1.33,0v-.33a1,1,0,0,0-1.19-1.17,5.4,5.4,0,0,0-2.15.56l-.69-1.41a6.2,6.2,0,0,1,2.92-.69,3.63,3.63,0,0,1,2.36.67,2.47,2.47,0,0,1,.82,2v5.09Zm-.61-3.54-.81,0a2.59,2.59,0,0,0-1.35.33,1,1,0,0,0-.45.92c0,.59.34.88,1,.88a1.6,1.6,0,0,0,1.16-.42,1.47,1.47,0,0,0,.43-1.1Z" style="fill:#4e4e4e"></path>
										<path d="M260.3,181.66h-2.08V171h2.08Z" style="fill:#4e4e4e"></path>
										<path d="M193,198.59a4,4,0,0,1-2.89-1,3.87,3.87,0,0,1-1-2.89,4.24,4.24,0,0,1,1-3,3.89,3.89,0,0,1,5.17-.13,3.48,3.48,0,0,1,.91,2.55v1h-4.93a2,2,0,0,0,.52,1.38,1.84,1.84,0,0,0,1.39.5,5.51,5.51,0,0,0,1.3-.14,6.94,6.94,0,0,0,1.29-.46v1.61a4.78,4.78,0,0,1-1.17.41A7.35,7.35,0,0,1,193,198.59Zm-.29-6.43a1.31,1.31,0,0,0-1,.42,1.89,1.89,0,0,0-.43,1.19h2.92a1.72,1.72,0,0,0-.4-1.19A1.36,1.36,0,0,0,192.74,192.16Z" style="fill:#4e4e4e"></path>
										<path d="M199.93,198.46h-2.09V187.82h2.09Z" style="fill:#4e4e4e"></path>
										<path d="M205.57,198.59a3.92,3.92,0,0,1-2.88-1,3.87,3.87,0,0,1-1-2.89,4.24,4.24,0,0,1,1-3,3.43,3.43,0,0,1,2.66-1.05,3.38,3.38,0,0,1,2.52.92,3.51,3.51,0,0,1,.9,2.55v1h-4.93a2,2,0,0,0,.53,1.38,1.83,1.83,0,0,0,1.38.5,5.46,5.46,0,0,0,1.3-.14,6.94,6.94,0,0,0,1.29-.46v1.61a4.51,4.51,0,0,1-1.17.41A7.29,7.29,0,0,1,205.57,198.59Zm-.29-6.43a1.33,1.33,0,0,0-1,.42,2,2,0,0,0-.43,1.19h2.93a1.73,1.73,0,0,0-.41-1.19A1.36,1.36,0,0,0,205.28,192.16Z" style="fill:#4e4e4e"></path><path d="M213.61,196.93a4.52,4.52,0,0,0,1.31-.24v1.56a4.75,4.75,0,0,1-1.92.34,2.35,2.35,0,0,1-1.82-.63,2.74,2.74,0,0,1-.57-1.89v-3.69h-1v-.88l1.15-.7.6-1.61h1.34v1.63h2.14v1.56H212.7v3.69a.8.8,0,0,0,.25.65A1,1,0,0,0,213.61,196.93Z" style="fill:#4e4e4e"></path>
										<path d="M220.73,190.67a3.37,3.37,0,0,1,.7.06l-.15,2a2.25,2.25,0,0,0-.62-.07,2.21,2.21,0,0,0-1.55.51,1.83,1.83,0,0,0-.56,1.44v3.89h-2.09v-7.64H218l.31,1.28h.1a2.88,2.88,0,0,1,1-1A2.33,2.33,0,0,1,220.73,190.67Z" style="fill:#4e4e4e"></path><path d="M229.77,194.62a4.08,4.08,0,0,1-1,2.92,3.56,3.56,0,0,1-2.74,1.05,3.85,3.85,0,0,1-1.94-.48,3.19,3.19,0,0,1-1.29-1.38,4.65,4.65,0,0,1-.45-2.11,4.08,4.08,0,0,1,1-2.91,3.6,3.6,0,0,1,2.75-1,3.85,3.85,0,0,1,1.94.48,3.22,3.22,0,0,1,1.29,1.37A4.51,4.51,0,0,1,229.77,194.62ZM227.63,190a7.18,7.18,0,0,1-1.6-1.2,8,8,0,0,1-1.56,1.2h-1.39v-.18a12.31,12.31,0,0,0,1.75-2.06h2.44a7.58,7.58,0,0,0,.74,1,13.66,13.66,0,0,0,1,1.09V190Zm-3.15,4.65a3.3,3.3,0,0,0,.37,1.72,1.34,1.34,0,0,0,1.22.58,1.32,1.32,0,0,0,1.2-.58,3.29,3.29,0,0,0,.36-1.72,3.13,3.13,0,0,0-.37-1.7,1.56,1.56,0,0,0-2.41,0A3.09,3.09,0,0,0,224.48,194.62Z" style="fill:#4e4e4e"></path><path d="M238.54,198.46h-2.08V194a2.12,2.12,0,0,0-.3-1.24,1.06,1.06,0,0,0-.93-.41,1.41,1.41,0,0,0-1.27.58,3.64,3.64,0,0,0-.39,1.94v3.6h-2.08v-7.64h1.59l.28,1h.12a2.1,2.1,0,0,1,1-.83,3.26,3.26,0,0,1,1.39-.29,2.66,2.66,0,0,1,2,.72,2.9,2.9,0,0,1,.69,2.08Z" style="fill:#4e4e4e"></path><path d="M240.6,188.84q0-1,1.14-1c.75,0,1.13.34,1.13,1a1,1,0,0,1-.28.76,1.2,1.2,0,0,1-.85.27C241,189.87,240.6,189.52,240.6,188.84Zm2.17,9.62h-2.08v-7.64h2.08Z" style="fill:#4e4e4e"></path><path d="M248.07,198.59q-3.57,0-3.57-3.91a4.18,4.18,0,0,1,1-3,3.62,3.62,0,0,1,2.78-1,5.4,5.4,0,0,1,2.38.52L250,192.8a9.14,9.14,0,0,0-.91-.32,3.13,3.13,0,0,0-.85-.13c-1.08,0-1.63.77-1.63,2.31s.55,2.25,1.63,2.25a3.6,3.6,0,0,0,2.14-.67V198a3.46,3.46,0,0,1-1,.44A5.93,5.93,0,0,1,248.07,198.59Z" style="fill:#4e4e4e"></path>
										<path d="M257,198.46l-.4-1h-.05a3.11,3.11,0,0,1-1.09.92,3.5,3.5,0,0,1-1.45.25,2.34,2.34,0,0,1-1.73-.62,2.44,2.44,0,0,1-.64-1.8,2,2,0,0,1,.86-1.79,4.93,4.93,0,0,1,2.56-.64l1.33,0v-.33a1,1,0,0,0-1.19-1.17,5.4,5.4,0,0,0-2.15.56l-.69-1.41a6.2,6.2,0,0,1,2.92-.69,3.63,3.63,0,0,1,2.36.67,2.47,2.47,0,0,1,.82,2v5.09Zm-.61-3.54-.81,0a2.59,2.59,0,0,0-1.35.33,1,1,0,0,0-.45.92c0,.59.34.88,1,.88a1.58,1.58,0,0,0,1.15-.42,1.44,1.44,0,0,0,.44-1.1Z" style="fill:#4e4e4e"></path>
										<path d="M342.77,315.66h2.14l-3.4,10H339.2l-3.39-10H338l1.88,5.95c.11.35.21.76.33,1.23s.18.79.21,1a17.68,17.68,0,0,1,.51-2.2Z" style="fill:#4e4e4e"></path><path d="M350.86,325.66l-.4-1h-.06a3.09,3.09,0,0,1-1.08.92,3.53,3.53,0,0,1-1.46.26,2.34,2.34,0,0,1-1.73-.63,2.43,2.43,0,0,1-.63-1.79,2,2,0,0,1,.85-1.8,5,5,0,0,1,2.57-.64l1.32,0v-.33a1,1,0,0,0-1.19-1.17,5.44,5.44,0,0,0-2.15.56l-.69-1.41a6.21,6.21,0,0,1,2.93-.69,3.6,3.6,0,0,1,2.35.67,2.45,2.45,0,0,1,.82,2v5.09Zm-.62-3.54-.8,0a2.63,2.63,0,0,0-1.36.33,1,1,0,0,0-.44.92c0,.59.34.88,1,.88a1.6,1.6,0,0,0,1.16-.42,1.43,1.43,0,0,0,.43-1.1Z" style="fill:#4e4e4e"></path>
										<path d="M356.55,325.66h-2.09V315h2.09Z" style="fill:#4e4e4e"></path>
										<path d="M358.64,316q0-1,1.14-1c.76,0,1.13.34,1.13,1a1,1,0,0,1-.28.76,1.19,1.19,0,0,1-.85.27C359,317.07,358.64,316.72,358.64,316Zm2.18,9.62h-2.09V318h2.09Z" style="fill:#4e4e4e"></path>
										<path d="M365.43,325.8a2.48,2.48,0,0,1-2.12-1.05,5.87,5.87,0,0,1,0-5.83,2.55,2.55,0,0,1,2.16-1.05,2.5,2.5,0,0,1,2.2,1.12h.07a8.94,8.94,0,0,1-.16-1.52V315h2.09v10.64h-1.6l-.4-1h-.09A2.38,2.38,0,0,1,365.43,325.8Zm.73-1.67a1.41,1.41,0,0,0,1.17-.46,2.75,2.75,0,0,0,.41-1.58v-.23a3.15,3.15,0,0,0-.38-1.76,1.44,1.44,0,0,0-1.24-.53,1.21,1.21,0,0,0-1.08.59,3.13,3.13,0,0,0-.39,1.72,3,3,0,0,0,.39,1.69A1.26,1.26,0,0,0,366.16,324.13Z" style="fill:#4e4e4e"></path>
										<path d="M376.72,325.66l-.4-1h-.06a3.09,3.09,0,0,1-1.08.92,3.53,3.53,0,0,1-1.46.26,2.34,2.34,0,0,1-1.73-.63,2.43,2.43,0,0,1-.63-1.79,2,2,0,0,1,.85-1.8,5,5,0,0,1,2.57-.64l1.32,0v-.33a1,1,0,0,0-1.19-1.17,5.44,5.44,0,0,0-2.15.56l-.69-1.41a6.21,6.21,0,0,1,2.93-.69,3.6,3.6,0,0,1,2.35.67,2.45,2.45,0,0,1,.82,2v5.09Zm-.62-3.54-.8,0a2.63,2.63,0,0,0-1.36.33,1,1,0,0,0-.44.92c0,.59.34.88,1,.88a1.6,1.6,0,0,0,1.16-.42,1.43,1.43,0,0,0,.43-1.1Z" style="fill:#4e4e4e"></path>
										<path d="M383.42,325.8q-3.56,0-3.56-3.92a4.18,4.18,0,0,1,1-3,3.61,3.61,0,0,1,2.78-1,5.4,5.4,0,0,1,2.38.52l-.62,1.62a7.92,7.92,0,0,0-.91-.33,3.19,3.19,0,0,0-.85-.13c-1.09,0-1.63.77-1.63,2.31s.54,2.25,1.63,2.25a3.6,3.6,0,0,0,2.14-.67v1.79a3.46,3.46,0,0,1-1,.44A5.89,5.89,0,0,1,383.42,325.8Zm1.31,1.57a1.46,1.46,0,0,1-.52,1.26,2.62,2.62,0,0,1-1.59.39,3.55,3.55,0,0,1-1-.14v-1.15l.5.1a3.28,3.28,0,0,0,.48,0c.33,0,.49-.14.49-.42s-.38-.63-1.13-.74l.53-1h1.32l-.19.42a1.67,1.67,0,0,1,.81.5A1.18,1.18,0,0,1,384.73,327.37Z" style="fill:#4e4e4e"></path>
										<path d="M392.37,325.66l-.4-1h-.05a3.2,3.2,0,0,1-1.09.92,3.48,3.48,0,0,1-1.45.26,2.34,2.34,0,0,1-1.73-.63,2.39,2.39,0,0,1-.64-1.79,2,2,0,0,1,.86-1.8,4.93,4.93,0,0,1,2.56-.64l1.33,0v-.33a1,1,0,0,0-1.19-1.17,5.4,5.4,0,0,0-2.15.56l-.7-1.41a6.24,6.24,0,0,1,2.93-.69,3.63,3.63,0,0,1,2.36.67,2.45,2.45,0,0,1,.82,2v5.09Zm-2.75-9.2a.61.61,0,0,0-.41.18,1.06,1.06,0,0,0-.28.55h-1a2.62,2.62,0,0,1,.56-1.55,1.63,1.63,0,0,1,1.3-.56,1.32,1.32,0,0,1,.55.11,5.12,5.12,0,0,1,.53.25l.52.24a1.29,1.29,0,0,0,.5.11.58.58,0,0,0,.4-.18,1.06,1.06,0,0,0,.29-.55h1a2.56,2.56,0,0,1-.57,1.55,1.63,1.63,0,0,1-1.29.56,1.32,1.32,0,0,1-.55-.11l-.54-.24c-.17-.09-.34-.18-.51-.25A1.16,1.16,0,0,0,389.62,316.46Zm2.14,5.66-.81,0a2.56,2.56,0,0,0-1.35.33,1,1,0,0,0-.45.92c0,.59.34.88,1,.88a1.58,1.58,0,0,0,1.15-.42,1.44,1.44,0,0,0,.44-1.1Z" style="fill:#4e4e4e"></path>
										<path d="M402.92,321.82a4.12,4.12,0,0,1-1,2.92,3.58,3.58,0,0,1-2.74,1.06,3.87,3.87,0,0,1-1.95-.49,3.19,3.19,0,0,1-1.29-1.38,4.65,4.65,0,0,1-.45-2.11,4.08,4.08,0,0,1,1-2.91,3.6,3.6,0,0,1,2.75-1,3.85,3.85,0,0,1,1.94.48,3.22,3.22,0,0,1,1.29,1.37A4.64,4.64,0,0,1,402.92,321.82Zm-5.28,0a3.21,3.21,0,0,0,.37,1.72,1.32,1.32,0,0,0,1.21.58,1.29,1.29,0,0,0,1.2-.58,3.19,3.19,0,0,0,.37-1.72,3.13,3.13,0,0,0-.37-1.7,1.34,1.34,0,0,0-1.21-.57,1.31,1.31,0,0,0-1.2.57A3.09,3.09,0,0,0,397.64,321.82Z" style="fill:#4e4e4e"></path>
										<path d="M414.34,322.88a2.58,2.58,0,0,1-1,2.14,4.22,4.22,0,0,1-2.71.78,6.37,6.37,0,0,1-2.83-.61v-2a10.21,10.21,0,0,0,1.71.64,5.29,5.29,0,0,0,1.28.19,1.8,1.8,0,0,0,1.07-.27,1,1,0,0,0,.21-1.32,1.89,1.89,0,0,0-.48-.44,11.66,11.66,0,0,0-1.3-.68,6.14,6.14,0,0,1-1.37-.82,3,3,0,0,1-.73-.93,2.65,2.65,0,0,1-.27-1.23,2.61,2.61,0,0,1,.89-2.08,3.72,3.72,0,0,1,2.49-.76,5.64,5.64,0,0,1,1.49.19,10.44,10.44,0,0,1,1.48.51l-.69,1.65a10.13,10.13,0,0,0-1.32-.46,4.61,4.61,0,0,0-1-.13,1.38,1.38,0,0,0-.92.28.93.93,0,0,0-.32.74.9.9,0,0,0,.13.49,1.42,1.42,0,0,0,.41.4,14.12,14.12,0,0,0,1.34.7,5.26,5.26,0,0,1,1.92,1.34A2.6,2.6,0,0,1,414.34,322.88Z" style="fill:#4e4e4e"></path>
										<path d="M421.91,325.66h-5.75v-10h5.75v1.74h-3.64v2.19h3.39v1.74h-3.39v2.58h3.64Z" style="fill:#4e4e4e"></path>
										<path d="M426.08,325.66H424v-10h5.72v1.74h-3.64V320h3.39v1.73h-3.39Z" style="fill:#4e4e4e"></path>
										<path d="M437.8,325.66l-.73-2.38h-3.64l-.72,2.38h-2.29l3.53-10h2.59l3.54,10Zm-1.23-4.16c-.67-2.15-1.05-3.37-1.13-3.66s-.15-.5-.19-.67c-.15.59-.58,2-1.29,4.33Z" style="fill:#4e4e4e"></path>
										<path d="M447.85,325.66h-7.43v-1.38l4.79-6.87h-4.66v-1.75h7.17V317l-4.78,6.88h4.91Z" style="fill:#4e4e4e"></path>
										<path d="M526.16,180.66h-2.42l-2.32-3.78-2.33,3.78h-2.27l3.32-5.16L517,170.66h2.34l2.16,3.6,2.11-3.6h2.28l-3.14,5Z" style="fill:#4e4e4e"></path>
										<path d="M531.65,180.66l-2.41-7.84h-.06c.09,1.59.13,2.66.13,3.19v4.65h-1.89v-10h2.88l2.37,7.65h0l2.51-7.65h2.88v10h-2v-4.73c0-.23,0-.48,0-.77s0-1.07.09-2.33h-.06l-2.58,7.83Z" style="fill:#4e4e4e"></path>
										<path d="M540.62,180.66v-10h2.12v8.25h4v1.75Z" style="fill:#4e4e4e"></path>
										<path d="M555.46,180.8a4,4,0,0,1-2.89-1,3.87,3.87,0,0,1-1-2.89,4.24,4.24,0,0,1,1-3,3.41,3.41,0,0,1,2.65-1,3.34,3.34,0,0,1,2.52.93,3.44,3.44,0,0,1,.91,2.54v1h-4.93a2,2,0,0,0,.52,1.38,1.83,1.83,0,0,0,1.38.5,5.54,5.54,0,0,0,1.31-.14,6.94,6.94,0,0,0,1.29-.46v1.62a5.21,5.21,0,0,1-1.17.4A7.29,7.29,0,0,1,555.46,180.8Zm-.29-6.44a1.31,1.31,0,0,0-1,.42,1.89,1.89,0,0,0-.43,1.19h2.92a1.72,1.72,0,0,0-.4-1.19A1.36,1.36,0,0,0,555.17,174.36Z" style="fill:#4e4e4e"></path>
										<path d="M524.08,192.37a4.92,4.92,0,0,1-1.4,3.78,5.76,5.76,0,0,1-4.06,1.31h-2.83v-10h3.14a5.25,5.25,0,0,1,3.8,1.3A4.75,4.75,0,0,1,524.08,192.37Zm-2.2,0c0-2.15-.94-3.22-2.84-3.22h-1.13v6.51h.91Q521.88,195.71,521.88,192.42Z" style="fill:#4e4e4e"></path>
										<path d="M532.27,197.46l-.72-2.38h-3.64l-.73,2.38H524.9l3.53-10H531l3.54,10ZM531,193.3c-.67-2.15-1-3.37-1.13-3.66s-.14-.5-.18-.67c-.15.59-.58,2-1.29,4.33Z" style="fill:#4e4e4e"></path>
										<path d="M544.68,197.46H542l-4.35-7.56h-.06c.09,1.33.13,2.29.13,2.86v4.7h-1.89v-10h2.67l4.34,7.49h0c-.07-1.3-.11-2.22-.11-2.76v-4.73h1.91Z" style="fill:#4e4e4e"></path>
										<path d="M549.28,197.46H547.2v-10h5.73v1.74h-3.65v2.58h3.39v1.73h-3.39Z" style="fill:#4e4e4e"></path>
										<path d="M560.64,197.46h-5.76v-10h5.76v1.74H557v2.19h3.38v1.74H557v2.58h3.64Z" style="fill:#4e4e4e"></path>
										<g id="Icon1">
											<path d="M391.15,84.4a4.2,4.2,0,1,0,4.2,4.2A4.21,4.21,0,0,0,391.15,84.4Z" style="fill:none"></path>
											<path d="M395.46,92.78l-.31-.14.23-.25a5.69,5.69,0,1,0-1.22,1l.11-.07.11.05a9.18,9.18,0,0,1,5.89,7.79l0,.27H382l0-.27a9.16,9.16,0,0,1,3.11-6.14.47.47,0,0,0,.17-.33.48.48,0,0,0-.12-.36.51.51,0,0,0-.34-.17h0a.47.47,0,0,0-.32.12A10.13,10.13,0,0,0,381,102a.49.49,0,0,0,.49.49H400.8a.49.49,0,0,0,.49-.49A10.17,10.17,0,0,0,395.46,92.78Zm-4.31.52a4.7,4.7,0,1,1,4.7-4.7A4.71,4.71,0,0,1,391.15,93.3Z" style="fill:#4e4e4e"></path>
											<path d="M396,92.47a6.17,6.17,0,1,0-4.81,2.32,6.23,6.23,0,0,0,3.17-.88,8.68,8.68,0,0,1,5.43,7H382.56a8.59,8.59,0,0,1,2.91-5.53,1,1,0,0,0,.34-.68,1,1,0,0,0-.24-.72,1,1,0,0,0-.68-.34,1,1,0,0,0-.72.24,10.66,10.66,0,0,0-3.65,8,1,1,0,0,0,1,1H400.8a1,1,0,0,0,1-1A10.68,10.68,0,0,0,396,92.47Zm4.84,10H381.51A.49.49,0,0,1,381,102a10.13,10.13,0,0,1,3.48-7.65.47.47,0,0,1,.32-.12h0a.51.51,0,0,1,.34.17.48.48,0,0,1,.12.36.47.47,0,0,1-.17.33,9.16,9.16,0,0,0-3.11,6.14l0,.27H400.3l0-.27a9.18,9.18,0,0,0-5.89-7.79l-.11-.05-.11.07a5.73,5.73,0,1,1,1.22-1l-.23.25.31.14a10.17,10.17,0,0,1,5.83,9.18A.49.49,0,0,1,400.8,102.45Z" style="fill:#4d4d4d"></path>
											<path d="M391.15,83.9a4.7,4.7,0,1,0,4.7,4.7A4.71,4.71,0,0,0,391.15,83.9Zm0,8.9a4.2,4.2,0,1,1,4.2-4.2A4.21,4.21,0,0,1,391.15,92.8Z" style="fill:#4d4d4d"></path>
										</g>
										<g id="Icon2">
											<path d="M285.77,185.19v-9.32a1.65,1.65,0,0,1,1.88-1.88q6.06,0,12.13,0a1.14,1.14,0,0,1,.73.3c1.43,1.39,2.83,2.8,4.22,4.22a1.05,1.05,0,0,1,.29.69q0,7.71,0,15.44a1.63,1.63,0,0,1-1.79,1.81H287.59a1.64,1.64,0,0,1-1.82-1.84Zm17.62,9.64V180.38H298.6v-4.76H287.41v19.21Z" style="fill:#4e4e4e"></path>
											<path d="M295.38,185.22H290c-.64,0-1-.28-1-.78s.36-.82,1-.82H300.8c.64,0,1,.28,1,.78s-.36.82-1,.82Z" style="fill:#4e4e4e"></path>
											<path d="M295.4,188.43h-5.46a.83.83,0,0,1-.94-.65c-.12-.53.29-.95.94-.95h7.82c1,0,2.07,0,3.11,0,.59,0,.95.31.95.8s-.36.8-.95.8Z" style="fill:#4e4e4e"></path>
											<path d="M295.4,190h5.47c.55,0,.89.26.95.7a.82.82,0,0,1-.9.9c-1.15,0-2.31,0-3.46,0-2.47,0-4.95,0-7.42,0a1.08,1.08,0,0,1-.74-.2,1.14,1.14,0,0,1-.25-.83c.06-.41.42-.56.84-.56h5.51Z" style="fill:#4e4e4e"></path>
											<path d="M293,180.41h-3c-.59,0-.95-.31-.95-.8s.35-.79.95-.8h6.12c.59,0,.95.32.95.8s-.37.8-.95.8Z" style="fill:#4e4e4e"></path>
										</g>
										<g id="Icon3">
											<path d="M398.16,290.58v2.84l2.81-3.28h-2.38A.44.44,0,0,0,398.16,290.58Z" style="fill:none"></path>
											<path d="M383.2,294.31a.44.44,0,0,0,.44.44h12.58v-4.17a2.38,2.38,0,0,1,2.37-2.38h3.24v-7.41H383.2Zm3.81-8.72,3.5,3.5,6.61-6.61,1.37,1.37-8,8L385.64,287Z" style="fill:none"></path>
											<path d="M401.4,276.11H383.64a.43.43,0,0,0-.44.44v2.3h18.63v-2.3A.44.44,0,0,0,401.4,276.11Z" style="fill:none"></path>
											<path d="M401.4,274.18H383.64a2.37,2.37,0,0,0-2.37,2.37v17.76a2.37,2.37,0,0,0,2.37,2.37h14.25l5.88-6.86V276.54A2.37,2.37,0,0,0,401.4,274.18Zm-3.24,19.24v-2.84a.44.44,0,0,1,.43-.44H401Zm3.67-5.22h-3.24a2.38,2.38,0,0,0-2.37,2.38v4.17H383.64a.44.44,0,0,1-.44-.44V280.79h18.63Zm0-9.35H383.2v-2.3a.43.43,0,0,1,.44-.44H401.4a.44.44,0,0,1,.43.44Z" style="fill:#4d4d4d"></path>
											<polygon points="398.49 283.85 397.12 282.48 390.51 289.09 387.01 285.59 385.64 286.96 390.51 291.82 398.49 283.85" style="fill:#4d4d4d"></polygon>
										</g>
										<g id="Icon4">
											<path d="M494.39,177.63a1,1,0,0,0-.29-.69c-1.78-1.82-3.58-3.61-5.38-5.41H478.1a1.87,1.87,0,0,0-1.14,2c0,2.36,0,4.71,0,7.07v1.12h1.13v-.61q0-3.9,0-7.82c0-.38.08-.64.54-.64H488c.33,0,.39.14.38.43,0,.9,0,1.8,0,2.7a1.65,1.65,0,0,0,1.83,1.81c.88,0,1.77,0,2.65,0,.36,0,.46.11.46.46q0,8,0,16c0,.46-.18.62-.62.61H478.73c-.55,0-.63-.09-.63-.64,0-.78,0-1.57,0-2.36H477c0,.72,0,1.4,0,2.07a1.86,1.86,0,0,0,1.14,2.06h15.18a1.93,1.93,0,0,0,1.14-2.06C494.39,188.37,494.41,183,494.39,177.63Z" style="fill:#4e4e4e"></path>
											<path d="M482.28,190.1h7.34c.95,0,1.37-.41,1.37-1.34v-4.08c0-1-.4-1.39-1.37-1.39H474.88c-.9,0-1.32.43-1.32,1.35v3.93c0,1.19.36,1.54,1.56,1.54Zm2.43-4.71a.57.57,0,0,1,.33-.46c.3-.06.38.2.38.47,0,.81,0,1.63,0,2.51.52,0,1,0,1.4,0,.14,0,.26.18.39.28-.13.1-.26.27-.4.28-.55,0-1.1,0-1.65,0-.33,0-.46-.17-.46-.47C484.7,187.15,484.68,186.27,484.71,185.39Zm-4.77,3.13c-.17-.07-.39-.09-.49-.21a11.46,11.46,0,0,1-.72-1.09c-.27.4-.47.76-.73,1.07-.11.13-.35.15-.54.22,0-.19-.1-.43,0-.58.24-.44.55-.85.83-1.27-.25-.4-.52-.77-.73-1.18-.06-.13,0-.35,0-.53.17.06.4.08.5.2a10.86,10.86,0,0,1,.65,1,8.57,8.57,0,0,1,.68-1c.1-.12.33-.14.49-.21,0,.18.1.4,0,.54-.15.32-.41.6-.57.92a.6.6,0,0,0,0,.49c.19.37.47.69.64,1C480.07,188.1,480,188.33,479.94,188.52Zm1.89-.45c-.21-.65-.35-1.33-.59-2V188c0,.25,0,.52-.33.52s-.35-.26-.35-.51c0-.85,0-1.7,0-2.56,0-.26.05-.49.36-.5s.69-.15.81.34a11.52,11.52,0,0,0,.6,1.8c.15-.55.29-1.1.44-1.66s.29-.56.85-.49c.41.06.37.36.37.64V188c0,.25,0,.52-.33.52s-.35-.25-.35-.51c0-.64,0-1.29,0-1.94h-.07c-.17.65-.31,1.32-.51,2-.06.19-.28.33-.43.49C482.14,188.4,481.89,188.27,481.83,188.07Z" style="fill:#4e4e4e"></path>
										</g>
										<path id="linha1" d="M299,149.89a74.63,74.63,0,0,1,55.67-56.24" style="fill:none;stroke:gray;stroke-linecap:round;stroke-miterlimit:10;stroke-dasharray:6"></path>
										<polygon id="Seta1" points="302.48 148.22 299.2 151.5 295.92 148.22 302.48 148.22" style="fill:gray"></polygon>
										<path id="linha2" d="M298.66,222.88a74.63,74.63,0,0,0,55.68,56.29" style="fill:none;stroke:gray;stroke-linecap:round;stroke-miterlimit:10;stroke-dasharray:6"></path>
										<polygon id="Seta2" points="354.89 275.91 358.17 279.19 354.89 282.46 354.89 275.91" style="fill:gray"></polygon>
										<path id="linha3" d="M427.33,280.72a74.61,74.61,0,0,0,56-55.62" style="fill:none;stroke:gray;stroke-linecap:round;stroke-miterlimit:10;stroke-dasharray:6"></path>
										<polygon id="Seta3" points="479.72 225.29 482.99 222.01 486.27 225.29 479.72 225.29" style="fill:gray"></polygon>
									</g>
								</g>
						</svg>
